<svg aria-hidden="true" style="position: absolute; width: 0; height: 0; overflow: hidden;" version="1.1" xmlns="http://www.w3.org/2000/svg" xmlns:xlink="http://www.w3.org/1999/xlink">
<defs>
<symbol id="icon-triangle-catalog" viewBox="0 0 38 32">
<path d="M19.2 32l18.475-32h-36.95l18.475 32z"></path>
</symbol>
<symbol id="icon-search" viewBox="0 0 32 32">
<path d="M2.025 24.982l5.068-5.068 3.898-1.61c-1.298-1.846-1.993-4.048-1.991-6.304 0-6.065 4.935-11 11-11s11 4.935 11 11-4.935 11-11 11c-2.276 0.003-4.496-0.705-6.351-2.024l-1.606 3.888-5.068 5.068c-0.325 0.325-0.711 0.583-1.135 0.759s-0.88 0.266-1.339 0.266c-0.46 0-0.915-0.090-1.339-0.266s-0.811-0.434-1.136-0.759-0.583-0.711-0.759-1.136c-0.176-0.425-0.266-0.88-0.266-1.339s0.091-0.915 0.266-1.34c0.176-0.425 0.434-0.81 0.759-1.136zM29 12c0-4.963-4.037-9-9-9s-9 4.037-9 9 4.037 9 9 9c4.962 0 9-4.038 9-9zM3.439 28.518c0.282 0.281 0.663 0.439 1.061 0.439s0.779-0.158 1.061-0.439l4.786-4.786 1.493-3.615-3.615 1.493-4.786 4.786c-0.281 0.281-0.439 0.663-0.439 1.061s0.158 0.779 0.439 1.060z"></path>
</symbol>
<symbol id="icon-catalog-scroll-down" viewBox="0 0 55 32">
<path fill="#fff" style="fill: var(--color1, #fff)" d="M25.004 29.853c1.339 1.339 3.51 1.339 4.849 0l21.819-21.819c1.339-1.339 1.339-3.51 0-4.849s-3.51-1.339-4.849 0l-19.395 19.395-19.395-19.395c-1.339-1.339-3.51-1.339-4.849 0s-1.339 3.51 0 4.849l21.819 21.819zM24 25.143v2.286h6.857v-2.286h-6.857z"></path>
</symbol>
<symbol id="icon-menu-mobile" viewBox="0 0 32 32">
<path d="M3.5 14H24.5M3.5 7H24.5M3.5 21H24.5" stroke-width="2" stroke-linecap="round" stroke-linejoin="round"/>
  </symbol>
<symbol id="icon-close-menu" viewBox="0 0 33 32">
<path stroke-width="2.2857" stroke-miterlimit="4" stroke-linecap="butt" stroke-linejoin="miter" d="mNaNclNaNNaNclNaNNaNNaNNaNclNaNNaNclNaNNaN"></path>
<path stroke-width="2.2857" stroke-miterlimit="4" stroke-linecap="butt" stroke-linejoin="miter" d="mNaNclNaNNaNclNaNNaNNaNNaNclNaNNaNclNaNNaN"></path>
</symbol>
<symbol id="icon-scroll-up" viewBox="0 0 32 32">
<path fill="#fff" style="fill: var(--color1, #fff)" d="M32 16c0 8.837-7.163 16-16 16s-16-7.163-16-16c0-8.837 7.163-16 16-16s16 7.163 16 16z"></path>
<path fill="#8a8883" style="fill: var(--color2, #8a8883)" d="M16.679 11.481c-0.375-0.375-0.983-0.375-1.358 0l-6.109 6.109c-0.375 0.375-0.375 0.983 0 1.358s0.983 0.375 1.358 0l5.431-5.431 5.431 5.431c0.375 0.375 0.983 0.375 1.358 0s0.375-0.983 0-1.358l-6.109-6.109zM16.96 12.8v-0.64h-1.92v0.64h1.92z"></path>
</symbol>
<symbol id="icon-arrow-black-long" viewBox="0 0 1371 32">
<path d="M1371.429 16.098l-22.857-13.197v26.393l22.857-13.197zM0 18.384h1350.857v-4.571h-1350.857v4.571z"></path>
</symbol>
<symbol id="icon-arrow-catalog-long" viewBox="0 0 823 32">
<path d="M822.871 15.987l-22.857-13.197v26.393l22.857-13.197zM0 18.272h802.299v-4.571h-802.299v4.571z"></path>
</symbol>
<symbol id="icon-arrow-catalog" viewBox="0 0 549 32">
<path d="M548.571 15.987l-22.857-13.197v26.393l22.857-13.197zM0 18.272h528v-4.571h-528v4.571z"></path>
</symbol>
<symbol id="icon-arrow-threebaths" viewBox="0 0 2078 32">
<path d="M-0 15.993l24.615 14.212v-28.423l-24.615 14.212zM2077.546 13.531h-2055.392v4.923h2055.392v-4.923z"></path>
</symbol>
<symbol id="icon-telegram" viewBox="0 0 32 32">
<path fill="none" opacity="0.8" stroke="#fff" stroke-width="1.8462" stroke-miterlimit="4" stroke-linecap="round" stroke-linejoin="round" style="stroke: var(--color1, #fff)" d="M28 6.667l-25.333 10 9.333 1.333M28 6.667l-3.333 20-12.667-8.667M28 6.667l-16 11.333M12 18v7.333l4.332-4.369"></path>
</symbol>
<symbol id="icon-whatsapp" viewBox="0 0 32 32">
<path fill="#fff" opacity="0.8" style="fill: var(--color1, #fff)" d="M25.4 6.547c-1.222-1.235-2.678-2.214-4.283-2.88s-3.326-1.006-5.064-1c-7.28 0-13.213 5.933-13.213 13.213 0 2.333 0.613 4.6 1.76 6.6l-1.867 6.853 7-1.84c1.933 1.053 4.107 1.613 6.32 1.613 7.28 0 13.213-5.933 13.213-13.213 0-3.533-1.373-6.853-3.867-9.347zM16.053 26.867c-1.973 0-3.907-0.533-5.6-1.533l-0.4-0.24-4.16 1.093 1.107-4.053-0.267-0.413c-1.096-1.751-1.679-3.774-1.68-5.84 0-6.053 4.933-10.987 10.987-10.987 2.933 0 5.693 1.147 7.76 3.227 1.023 1.019 1.834 2.23 2.386 3.565s0.833 2.765 0.828 4.209c0.027 6.053-4.907 10.973-10.96 10.973zM22.080 18.653c-0.333-0.16-1.96-0.96-2.253-1.080-0.307-0.107-0.52-0.16-0.747 0.16-0.227 0.333-0.853 1.080-1.040 1.293-0.187 0.227-0.387 0.253-0.72 0.080-0.333-0.16-1.4-0.52-2.653-1.64-0.987-0.88-1.64-1.96-1.84-2.293-0.187-0.333-0.027-0.507 0.147-0.68 0.147-0.147 0.333-0.387 0.493-0.573s0.227-0.333 0.333-0.547c0.107-0.227 0.053-0.413-0.027-0.573s-0.747-1.787-1.013-2.453c-0.267-0.64-0.547-0.56-0.747-0.573h-0.64c-0.227 0-0.573 0.080-0.88 0.413-0.293 0.333-1.147 1.133-1.147 2.76s1.187 3.2 1.347 3.413c0.16 0.227 2.333 3.56 5.64 4.987 0.787 0.347 1.4 0.547 1.88 0.693 0.787 0.253 1.507 0.213 2.080 0.133 0.64-0.093 1.96-0.8 2.227-1.573 0.28-0.773 0.28-1.427 0.187-1.573s-0.293-0.213-0.627-0.373z"></path>
</symbol>
<symbol id="icon-instagram" viewBox="0 0 32 32">
<path fill="#fff" opacity="0.8" style="fill: var(--color1, #fff)" d="M15.999 9.836c-1.635 0-3.203 0.65-4.36 1.806s-1.806 2.724-1.806 4.36c0 1.635 0.65 3.203 1.806 4.36s2.724 1.806 4.36 1.806 3.203-0.65 4.36-1.806c1.156-1.156 1.806-2.724 1.806-4.36s-0.649-3.203-1.806-4.36c-1.156-1.156-2.724-1.806-4.36-1.806zM15.999 20.005c-1.062 0-2.081-0.422-2.832-1.173s-1.173-1.77-1.173-2.832c0-1.062 0.422-2.081 1.173-2.832s1.77-1.173 2.832-1.173c1.062 0 2.081 0.422 2.832 1.173s1.173 1.77 1.173 2.832c0 1.062-0.422 2.081-1.173 2.832s-1.77 1.173-2.832 1.173z"></path>
<path fill="#fff" opacity="0.8" style="fill: var(--color1, #fff)" d="M22.408 11.047c0.794 0 1.437-0.644 1.437-1.437s-0.644-1.437-1.437-1.437c-0.794 0-1.437 0.644-1.437 1.437s0.644 1.437 1.437 1.437z"></path>
<path fill="#fff" opacity="0.8" style="fill: var(--color1, #fff)" d="M27.377 8.148c-0.309-0.797-0.78-1.521-1.385-2.125s-1.329-1.076-2.126-1.384c-0.933-0.35-1.918-0.54-2.915-0.56-1.284-0.056-1.691-0.072-4.947-0.072s-3.673 0-4.947 0.072c-0.995 0.019-1.98 0.209-2.912 0.56-0.797 0.308-1.522 0.779-2.126 1.384s-1.076 1.328-1.384 2.126c-0.35 0.933-0.539 1.918-0.559 2.915-0.057 1.283-0.075 1.689-0.075 4.947 0 3.256 0 3.671 0.075 4.947 0.020 0.997 0.208 1.981 0.559 2.916 0.309 0.797 0.781 1.521 1.386 2.125s1.329 1.076 2.126 1.384c0.93 0.364 1.915 0.567 2.913 0.6 1.284 0.056 1.691 0.073 4.947 0.073s3.673 0 4.947-0.073c0.996-0.020 1.982-0.209 2.915-0.559 0.797-0.309 1.521-0.781 2.125-1.385s1.076-1.328 1.385-2.125c0.351-0.933 0.539-1.917 0.559-2.915 0.057-1.283 0.075-1.689 0.075-4.947s0-3.671-0.075-4.947c-0.015-1.010-0.205-2.010-0.561-2.956zM25.753 20.857c-0.009 0.768-0.149 1.53-0.415 2.251-0.2 0.519-0.507 0.989-0.9 1.382s-0.864 0.699-1.383 0.899c-0.713 0.265-1.466 0.405-2.227 0.415-1.267 0.059-1.624 0.073-4.872 0.073-3.251 0-3.583 0-4.873-0.073-0.76-0.009-1.513-0.15-2.225-0.415-0.52-0.199-0.993-0.504-1.388-0.897s-0.703-0.864-0.904-1.384c-0.262-0.713-0.402-1.466-0.415-2.225-0.057-1.267-0.071-1.624-0.071-4.872 0-3.249 0-3.581 0.071-4.873 0.009-0.768 0.149-1.529 0.415-2.249 0.407-1.052 1.24-1.88 2.292-2.283 0.713-0.264 1.465-0.404 2.225-0.415 1.268-0.057 1.624-0.073 4.873-0.073s3.583 0 4.872 0.073c0.761 0.009 1.514 0.149 2.227 0.415 0.519 0.2 0.99 0.507 1.383 0.9s0.7 0.864 0.9 1.383c0.262 0.713 0.402 1.466 0.415 2.225 0.057 1.268 0.072 1.624 0.072 4.873 0 3.248 0 3.597-0.057 4.872h-0.015v-0.001z"></path>
</symbol>
<symbol id="icon-group-circles" viewBox="0 0 230 32">
<path fill="#fff" opacity="0.5599999999999999" style="fill: var(--color1, #fff)" d="M32 16c0 8.837-7.163 16-16 16s-16-7.163-16-16c0-8.837 7.163-16 16-16s16 7.163 16 16z"></path>
<path fill="none" opacity="0.8" stroke="#fff" stroke-width="3.2" stroke-miterlimit="4" stroke-linecap="butt" stroke-linejoin="miter" style="stroke: var(--color1, #fff)" d="M129.6 16c0 7.953-6.447 14.4-14.4 14.4s-14.4-6.447-14.4-14.4c0-7.953 6.447-14.4 14.4-14.4s14.4 6.447 14.4 14.4z"></path>
<path fill="none" opacity="0.8" stroke="#fff" stroke-width="3.2" stroke-miterlimit="4" stroke-linecap="butt" stroke-linejoin="miter" style="stroke: var(--color1, #fff)" d="M228.8 16c0 7.953-6.447 14.4-14.4 14.4s-14.4-6.447-14.4-14.4c0-7.953 6.447-14.4 14.4-14.4s14.4 6.447 14.4 14.4z"></path>
</symbol>
<symbol id="icon-arrow-hero" viewBox="0 0 823 32">
<path fill="#fff" style="fill: var(--color1, #fff)" d="M822.871 15.987l-22.857-13.197v26.393l22.857-13.197zM0 18.272h802.299v-4.571h-802.299v4.571z"></path>
</symbol>
<symbol id="icon-basket" viewBox="0 0 32 32">
<path fill="none" stroke-width="1.6552" stroke-miterlimit="4" stroke-linecap="round" stroke-linejoin="round" style="stroke: var(--color1, #fff)" d="M5.303 13.12c0.054-0.668 0.357-1.292 0.85-1.746s1.139-0.707 1.809-0.707h16.077c0.67-0 1.316 0.252 1.809 0.707s0.796 1.078 0.85 1.746l1.071 13.333c0.029 0.367-0.017 0.736-0.138 1.084s-0.311 0.667-0.561 0.938c-0.25 0.271-0.553 0.486-0.89 0.634s-0.701 0.224-1.069 0.224h-18.221c-0.368-0-0.732-0.076-1.069-0.224s-0.64-0.364-0.89-0.634c-0.25-0.27-0.441-0.59-0.561-0.938s-0.167-0.717-0.138-1.084l1.071-13.333z"></path>
<path fill="none" stroke-width="1.6552" stroke-miterlimit="4" stroke-linecap="round" stroke-linejoin="round" style="stroke: var(--color1, #fff)" d="M21.333 14.667v-6.667c0-1.415-0.562-2.771-1.562-3.771s-2.357-1.562-3.771-1.562c-1.415 0-2.771 0.562-3.771 1.562s-1.562 2.357-1.562 3.771v6.667"></path>
</symbol>
<symbol id="icon-heart" viewBox="0 0 32 32">
<path fill="#fff" d="M22.45 6c0.728-0.001 1.449 0.144 2.12 0.426s1.28 0.694 1.79 1.214c1.050 1.066 1.639 2.503 1.639 4s-0.589 2.934-1.639 4l-10.36 10.49-10.36-10.49c-1.050-1.066-1.639-2.503-1.639-4s0.589-2.934 1.639-4c0.51-0.519 1.119-0.932 1.79-1.214s1.392-0.427 2.12-0.427c0.728 0 1.449 0.145 2.12 0.427s1.28 0.694 1.79 1.214l2.54 2.6 2.53-2.58c0.508-0.526 1.117-0.944 1.791-1.229s1.398-0.432 2.129-0.431zM22.45 4c-0.994-0.001-1.979 0.197-2.896 0.582s-1.748 0.949-2.444 1.659l-1.11 1.12-1.11-1.12c-0.697-0.709-1.528-1.272-2.445-1.656s-1.901-0.582-2.895-0.582-1.978 0.198-2.895 0.582c-0.917 0.384-1.748 0.947-2.445 1.656-1.418 1.444-2.213 3.386-2.213 5.41s0.795 3.966 2.213 5.41l11.79 11.94 11.79-11.94c1.418-1.444 2.213-3.386 2.213-5.41s-0.795-3.966-2.213-5.41c-0.697-0.709-1.528-1.272-2.445-1.657s-1.901-0.583-2.895-0.583z"></path>
</symbol>
</defs>
</svg>
